<?xml version="1.0" standalone="no"?>
<!DOCTYPE svg PUBLIC "-//W3C//DTD SVG 20010904//EN"
 "http://www.w3.org/TR/2001/REC-SVG-20010904/DTD/svg10.dtd">
<svg version="1.0" xmlns="http://www.w3.org/2000/svg"
 width="500.000000pt" height="500.000000pt" viewBox="0 0 500.000000 500.000000"
 preserveAspectRatio="xMidYMid meet">

<g transform="translate(0.000000,500.000000) scale(0.100000,-0.100000)"
fill="#000000" stroke="none">
<path d="M0 2500 l0 -2500 2500 0 2500 0 0 2500 0 2500 -2500 0 -2500 0 0
-2500z m2648 1338 c-7 -19 -38 -22 -38 -4 0 10 9 16 21 16 12 0 19 -5 17 -12z
m272 -62 c-13 -13 -35 7 -25 24 5 8 11 8 21 -1 10 -8 12 -15 4 -23z m-392 -37
c-2 -11 14 -36 41 -64 43 -44 43 -45 20 -54 -22 -8 -64 -55 -67 -74 -1 -4 -28
-26 -60 -47 -32 -21 -66 -48 -77 -60 -18 -20 -18 -20 16 -8 19 6 39 18 44 25
6 8 15 13 20 11 6 -1 32 12 59 31 36 25 45 36 35 43 -11 7 -11 8 1 7 8 -1 24
1 35 5 11 5 43 17 71 28 l51 19 46 -31 c26 -17 52 -30 59 -29 26 3 38 -1 38
-15 0 -14 90 -70 123 -77 10 -2 17 -7 15 -11 -2 -4 29 -39 69 -78 40 -38 68
-70 63 -70 -6 0 -10 -8 -11 -17 0 -10 -3 -13 -5 -6 -4 8 -21 1 -50 -20 -42
-30 -43 -32 -22 -40 29 -10 47 -3 57 25 7 20 9 17 16 -22 4 -24 24 -70 44
-102 37 -60 72 -85 137 -95 38 -6 40 -9 21 -32 -8 -9 -26 -37 -41 -64 -24 -41
-25 -48 -11 -54 12 -4 13 -8 5 -13 -10 -6 -10 -16 0 -44 6 -20 15 -36 19 -36
4 0 22 11 41 25 l33 24 -27 11 c-15 5 -32 10 -38 10 -6 0 -9 2 -6 5 6 7 98
-17 98 -25 0 -3 -12 -11 -27 -18 -16 -7 -39 -21 -53 -32 l-25 -19 33 -33 c30
-32 45 -67 22 -53 -6 4 -33 -10 -60 -30 -28 -20 -50 -34 -50 -31 0 2 20 19 44
37 56 40 60 51 31 79 l-24 22 -30 -67 c-17 -37 -31 -76 -31 -86 0 -12 -7 -19
-20 -19 -11 0 -19 4 -17 9 1 4 -9 18 -23 30 l-25 22 28 -17 c32 -19 32 -18 15
72 -13 72 -10 72 -102 28 -53 -26 -88 -32 -69 -13 7 7 4 22 -11 50 -11 21 -24
39 -28 39 -10 0 -68 -102 -68 -120 0 -8 -9 -21 -20 -27 -16 -11 -18 -10 -14 1
5 13 -2 13 -46 1 -29 -8 -53 -15 -55 -17 -1 -2 -17 -31 -35 -66 l-33 -62 19
-35 c10 -19 21 -35 24 -35 3 0 15 16 27 35 l22 34 -42 4 c-23 2 1 3 53 3 52 0
74 -1 47 -3 -41 -4 -50 -9 -72 -41 l-25 -37 27 -6 28 -7 -28 -1 c-16 0 -26 -5
-23 -10 4 -5 -3 -7 -14 -4 -11 3 -18 8 -15 12 2 4 -28 15 -68 25 -40 9 -82 19
-94 22 -27 7 -39 -13 -48 -86 -4 -30 -8 -59 -8 -65 -1 -5 12 -9 28 -8 22 2 26
0 15 -7 -22 -14 -52 -12 -93 5 -20 8 -47 15 -61 15 -15 0 -25 7 -29 20 -3 11
-1 18 4 14 5 -3 9 3 10 13 0 17 1 17 7 0 6 -15 14 -10 53 30 71 75 74 80 58
101 -13 15 -12 16 4 3 15 -12 17 -11 17 5 0 13 3 15 8 7 6 -9 20 3 45 37 21
28 36 54 33 59 -3 4 -29 13 -59 20 -51 11 -58 10 -111 -13 -32 -14 -55 -29
-53 -33 3 -5 -1 -14 -9 -21 -9 -8 -14 -9 -14 -2 0 6 -4 9 -9 6 -5 -4 -7 3 -4
14 7 28 -28 57 -39 32 -5 -14 -7 -13 -7 4 -1 12 18 39 47 66 26 25 52 53 57
62 7 11 18 14 33 10 l23 -7 -23 -11 c-19 -10 -53 -80 -57 -119 -1 -5 26 22 59
60 49 57 56 69 42 75 -13 5 -12 7 7 7 17 1 22 5 17 17 -5 13 -4 14 7 5 19 -15
118 25 110 44 -6 18 39 41 140 71 44 13 82 25 84 27 5 6 -127 97 -141 97 -12
0 -57 -78 -71 -123 -6 -21 -29 -18 -31 4 -2 34 -5 39 -16 39 -7 0 -35 -20 -63
-44 l-49 -44 -33 25 c-18 14 -33 22 -33 19 0 -4 -20 5 -43 19 -24 14 -49 25
-55 25 -15 0 -27 -43 -13 -48 6 -2 -12 -21 -39 -43 -28 -22 -50 -43 -50 -47 0
-4 -24 -33 -54 -64 -29 -30 -58 -64 -64 -74 -9 -16 -11 -17 -27 -1 -9 9 -21
17 -27 17 -6 0 -9 3 -6 6 4 3 16 0 28 -6 19 -10 21 -9 16 7 -3 10 -10 50 -17
88 -18 112 -17 111 -101 69 l-71 -36 39 -39 c43 -44 50 -47 58 -21 4 13 4 13
3 -3 -1 -11 2 -26 7 -34 6 -9 5 -12 -2 -7 -13 8 -92 -60 -92 -80 0 -8 17 -29
38 -48 32 -30 38 -32 44 -18 6 15 7 15 7 -1 1 -10 5 -16 10 -13 5 4 7 -3 4
-14 -3 -11 -10 -20 -16 -20 -16 0 -77 -62 -77 -78 0 -7 -5 -12 -11 -10 -6 2
-11 40 -12 93 -2 112 -20 132 -99 112 -33 -9 -35 -23 -8 -57 l20 -25 0 25 c0
14 4 32 9 39 6 10 8 0 4 -29 -5 -35 -4 -42 8 -35 11 7 12 6 2 -7 -7 -8 -10
-18 -6 -21 9 -10 -18 -7 -42 3 -17 7 -18 9 -2 9 16 1 17 3 1 32 -8 17 -25 34
-35 36 -22 6 -20 27 2 29 21 1 69 16 69 21 0 23 -26 102 -39 116 -13 15 -13
20 -2 27 8 4 19 6 26 4 6 -3 24 0 39 6 24 9 27 14 21 38 -3 15 -13 40 -21 56
-18 37 -18 56 0 56 17 0 146 137 146 156 0 7 8 15 18 18 9 3 69 55 132 116 63
60 116 110 118 110 1 0 25 16 51 36 30 22 47 42 44 50 -3 8 -9 14 -15 14 -22
0 5 18 36 24 19 4 37 13 40 21 6 15 -12 65 -23 65 -9 0 -36 -43 -33 -52 1 -5
-4 -8 -12 -8 -18 0 -98 -95 -88 -105 4 -5 2 -5 -5 -1 -7 3 -14 -2 -18 -13 -3
-10 -15 -21 -25 -24 -11 -3 -18 -1 -14 4 3 5 -1 9 -10 9 -8 0 -21 3 -30 6 -11
4 -19 -2 -25 -17 -7 -18 -10 -19 -10 -6 -1 25 -21 21 -60 -13 -31 -28 -33 -33
-29 -79 l5 -49 -33 -4 c-18 -2 -30 0 -28 4 3 4 11 8 19 8 15 0 25 22 25 56 0
24 -1 24 -61 -18 l-61 -43 34 -7 c31 -6 30 -7 -9 -5 -23 1 -40 1 -38 -2 3 -2
-2 -9 -11 -15 -10 -8 -15 -30 -15 -79 -1 -61 -9 -82 -23 -58 -11 17 -55 18
-70 2 -22 -25 -46 -78 -46 -101 0 -12 -4 -19 -9 -16 -4 3 -16 -12 -26 -34 -10
-22 -20 -38 -22 -36 -3 2 3 18 11 35 23 43 20 55 -18 73 l-33 16 12 -59 c16
-77 27 -89 83 -89 57 0 47 -13 -11 -14 -38 -1 -42 -3 -41 -26 0 -14 4 -35 8
-47 6 -19 4 -23 -15 -23 -17 0 -19 3 -10 14 10 12 5 76 -6 76 -4 0 -63 -65
-81 -92 -13 -17 -12 -18 15 -13 27 5 26 5 -4 -7 -17 -7 -35 -16 -39 -20 -13
-13 -26 -9 -21 7 9 22 -40 176 -60 190 -16 12 -16 15 -2 32 18 20 109 260 109
286 0 9 4 17 8 17 11 0 92 144 92 164 0 9 5 16 12 16 6 0 36 19 67 42 31 23
63 47 71 53 8 5 51 47 96 92 l81 82 176 46 c142 37 191 45 250 44 41 -1 82 3
93 9 23 13 36 6 32 -19z m472 21 c0 -5 -4 -10 -10 -10 -5 0 -10 5 -10 10 0 6
5 10 10 10 6 0 10 -4 10 -10z m-285 -30 c3 -6 -1 -13 -10 -16 -19 -8 -30 0
-20 15 8 14 22 14 30 1z m125 2 c0 -4 -10 -13 -22 -21 -23 -14 -23 -14 -4 8
20 22 26 25 26 13z m-70 -62 c0 -5 -4 -10 -10 -10 -5 0 -10 5 -10 10 0 6 5 10
10 10 6 0 10 -4 10 -10z m440 0 c0 -5 -2 -10 -4 -10 -3 0 -8 5 -11 10 -3 6 -1
10 4 10 6 0 11 -4 11 -10z m-230 -9 c0 -12 -20 -25 -27 -18 -7 7 6 27 18 27 5
0 9 -4 9 -9z m160 -60 c0 -14 -18 -23 -30 -16 -6 4 -8 11 -5 16 8 12 35 12 35
0z m-136 -56 c17 -26 17 -26 -6 -13 -13 7 -25 14 -27 15 -3 2 8 23 13 23 2 0
11 -11 20 -25z m260 -46 c-3 -5 -10 -7 -15 -3 -5 3 -7 10 -3 15 3 5 10 7 15 3
5 -3 7 -10 3 -15z m236 -59 c0 -5 -7 -10 -15 -10 -8 0 -15 5 -15 10 0 6 7 10
15 10 8 0 15 -4 15 -10z m-297 -50 c4 -14 0 -20 -12 -20 -9 0 -23 -6 -30 -12
-11 -11 -12 -10 -5 2 5 8 7 23 6 33 -5 25 34 22 41 -3z m117 -76 c0 -10 -6
-14 -14 -11 -7 3 -20 0 -27 -6 -7 -7 -5 -2 5 11 22 26 36 28 36 6z m-1180 -20
c0 -8 -6 -14 -14 -14 -8 0 -14 8 -13 19 1 21 27 17 27 -5z m1279 -117 c12 -15
5 -27 -16 -27 -7 0 -13 9 -13 20 0 23 13 26 29 7z m151 -25 c0 -13 -12 -22
-22 -16 -10 6 -1 24 13 24 5 0 9 -4 9 -8z m-80 -117 c0 -8 -7 -15 -15 -15 -8
0 -15 7 -15 15 0 8 7 15 15 15 8 0 15 -7 15 -15z m-1723 -42 c-3 -10 -5 -4 -5
12 0 17 2 24 5 18 2 -7 2 -21 0 -30z m33 -22 c-14 -27 -30 -35 -30 -16 0 9 4
14 9 11 5 -3 11 1 15 9 3 8 8 15 11 15 3 0 1 -9 -5 -19z m570 -85 c0 -2 -11
-6 -25 -8 -13 -3 -22 -1 -19 3 5 9 44 13 44 5z m1170 -14 c0 -13 -12 -22 -22
-16 -10 6 -1 24 13 24 5 0 9 -4 9 -8z m-1520 -59 c-7 -21 -16 -42 -21 -47 -4
-5 -1 14 8 42 9 29 19 50 21 47 2 -2 -1 -21 -8 -42z m1480 -43 c0 -5 -7 -10
-15 -10 -8 0 -15 5 -15 10 0 6 7 10 15 10 8 0 15 -4 15 -10z m-1511 -164 c1
-55 -5 -42 -12 24 -3 34 -2 47 3 35 5 -11 9 -38 9 -59z m1038 12 c-3 -8 -6 -5
-6 6 -1 11 2 17 5 13 3 -3 4 -12 1 -19z m-797 -14 c0 -8 -5 -12 -10 -9 -6 4
-8 11 -5 16 9 14 15 11 15 -7z m277 -16 c-3 -7 -5 -2 -5 12 0 14 2 19 5 13 2
-7 2 -19 0 -25z m-637 -1 c0 -2 -10 -12 -22 -23 l-23 -19 19 23 c18 21 26 27
26 19z m1490 -13 c0 -11 -5 -14 -16 -10 -9 3 -34 7 -57 8 l-42 1 50 7 c28 4
53 8 58 8 4 1 7 -5 7 -14z m-535 -24 c-9 -16 -18 -30 -21 -30 -2 0 2 14 11 30
9 17 18 30 21 30 2 0 -2 -13 -11 -30z m-308 -12 c-3 -8 -6 -5 -6 6 -1 11 2 17
5 13 3 -3 4 -12 1 -19z m623 12 c-8 -5 -19 -10 -25 -10 -5 0 -3 5 5 10 8 5 20
10 25 10 6 0 3 -5 -5 -10z m-807 -13 c6 4 -7 -14 -28 -40 -22 -26 -41 -47 -42
-47 -7 0 17 37 31 50 9 7 16 22 17 34 0 11 3 15 6 8 2 -6 10 -9 16 -5z m44
-29 c-3 -8 -6 -5 -6 6 -1 11 2 17 5 13 3 -3 4 -12 1 -19z m-630 6 c-3 -3 -12
-4 -19 -1 -8 3 -5 6 6 6 11 1 17 -2 13 -5z m1294 -12 c-22 -19 -84 -209 -84
-257 0 -31 61 -187 75 -193 4 -2 8 -13 8 -25 -1 -22 -1 -21 -22 3 -11 14 -24
24 -28 23 -4 -1 -7 4 -7 10 0 7 -48 79 -107 160 l-108 146 -24 -15 c-13 -9
-24 -14 -24 -11 0 13 50 35 90 40 44 6 44 6 10 -4 l-35 -11 30 -24 c17 -13 50
-38 74 -56 l44 -31 -7 29 c-26 105 -23 101 -74 112 l-47 10 50 1 c43 1 57 7
102 43 31 25 48 45 41 49 -11 7 6 13 45 16 16 2 16 0 -2 -15z m103 -7 c-9 -14
-18 -25 -21 -25 -5 0 5 18 20 38 17 22 18 13 1 -13z m-181 8 c-13 -2 -33 -2
-45 0 -13 2 -3 4 22 4 25 0 35 -2 23 -4z m-798 -23 c3 -5 1 -10 -4 -10 -6 0
-11 5 -11 10 0 6 2 10 4 10 3 0 8 -4 11 -10z m212 -12 c-3 -8 -6 -5 -6 6 -1
11 2 17 5 13 3 -3 4 -12 1 -19z m0 -70 c-2 -13 -4 -5 -4 17 -1 22 1 32 4 23 2
-10 2 -28 0 -40z m188 22 c9 -16 13 -30 11 -30 -3 0 -12 14 -21 30 -9 17 -13
30 -11 30 3 0 12 -13 21 -30z m145 -34 c0 -2 -8 -10 -17 -17 -16 -13 -17 -12
-4 4 13 16 21 21 21 13z m-110 -26 c6 -11 8 -20 6 -20 -3 0 -10 9 -16 20 -6
11 -8 20 -6 20 3 0 10 -9 16 -20z m427 -12 c-3 -8 -6 -5 -6 6 -1 11 2 17 5 13
3 -3 4 -12 1 -19z m-391 -40 c-1 -19 -8 -21 -41 -7 -17 7 -17 8 -2 8 9 1 17 5
17 9 0 5 6 9 14 9 7 0 13 -9 12 -19z m391 -25 c-3 -10 -5 -2 -5 17 0 19 2 27
5 18 2 -10 2 -26 0 -35z m-1555 -479 c26 -14 68 -59 68 -75 0 -16 -87 -10
-100 6 -7 8 -28 15 -47 15 -49 0 -83 -37 -83 -90 0 -78 81 -119 133 -67 l22
22 -47 3 c-46 3 -48 5 -48 33 l0 29 91 0 92 0 -6 -42 c-10 -77 -78 -138 -154
-138 -93 0 -153 54 -161 145 -11 136 117 220 240 159z m1848 1 c88 -45 113
-168 49 -249 -62 -78 -203 -75 -261 7 -30 41 -36 123 -13 171 39 81 140 113
225 71z m-2334 -6 c57 -27 84 -72 84 -139 0 -107 -68 -160 -203 -160 l-77 0 0
160 0 160 77 0 c57 0 88 -5 119 -21z m204 -139 l0 -160 -40 0 -40 0 0 160 0
160 40 0 40 0 0 -160z m470 0 l0 -160 -40 0 -40 0 0 160 0 160 40 0 40 0 0
-160z m290 130 c0 -29 -2 -30 -45 -30 l-45 0 0 -130 0 -130 -40 0 -40 0 0 130
0 130 -40 0 c-38 0 -40 2 -40 30 l0 30 125 0 125 0 0 -30z m260 -110 c26 -74
50 -145 54 -157 7 -21 4 -23 -34 -23 -34 0 -42 4 -50 25 -9 23 -15 25 -69 25
-54 0 -59 -2 -65 -25 -5 -21 -12 -25 -46 -25 -22 0 -40 3 -40 8 0 4 23 76 52
160 l53 153 49 -3 48 -3 48 -135z m170 10 l0 -130 45 0 c43 0 45 -1 45 -30 l0
-30 -85 0 -85 0 0 160 0 160 40 0 40 0 0 -130z m330 25 c12 -58 26 -105 29
-105 3 0 17 47 30 105 l24 105 47 0 46 0 24 -100 c13 -55 26 -100 30 -100 3 0
15 44 25 98 l20 97 43 3 c40 3 42 2 37 -20 -3 -13 -23 -84 -44 -158 l-38 -135
-46 -3 -46 -3 -11 43 c-29 111 -44 152 -48 138 -3 -8 -15 -51 -27 -95 l-22
-80 -46 -3 c-52 -3 -42 -21 -98 178 -17 63 -34 121 -36 128 -4 8 8 12 39 12
l44 0 24 -105z m952 66 c25 -28 29 -39 24 -70 -3 -23 -16 -45 -35 -61 l-30
-26 34 -57 c19 -32 35 -60 35 -63 0 -2 -20 -4 -44 -4 -44 0 -45 1 -78 60 -18
33 -36 60 -40 60 -5 0 -8 -27 -8 -60 l0 -60 -40 0 -40 0 0 161 0 161 96 -4
c94 -3 96 -3 126 -37z m158 -91 l0 -130 45 0 c43 0 45 -1 45 -30 l0 -30 -85 0
-85 0 0 160 0 160 40 0 40 0 0 -130z m313 116 c18 -7 45 -28 61 -45 24 -25 30
-42 34 -88 3 -48 0 -64 -20 -92 -43 -64 -69 -76 -174 -79 l-94 -4 0 161 0 161
80 0 c46 0 94 -6 113 -14z m-2019 -476 c17 6 30 4 45 -6 17 -13 21 -24 19 -67
l-1 -52 -4 45 c-5 55 -18 72 -52 68 -24 -3 -26 -7 -29 -55 -5 -82 -22 -62 -22
25 0 79 12 121 18 63 3 -27 6 -29 26 -21z m756 -41 c0 -46 -4 -79 -10 -79 -6
0 -10 35 -10 86 0 54 4 83 10 79 6 -3 10 -42 10 -86z m-1480 56 c0 -8 8 -16
18 -16 16 -1 16 -2 0 -6 -14 -3 -18 -15 -18 -48 0 -31 5 -47 18 -54 16 -10 16
-10 0 -11 -29 0 -44 50 -39 133 1 21 21 23 21 2z m1028 -21 c18 -12 22 -24 21
-67 l-1 -52 -9 49 c-9 57 -18 69 -50 64 -21 -3 -24 -9 -27 -55 -4 -73 -22 -67
-22 8 0 47 3 60 13 56 8 -3 20 -1 28 4 19 12 21 11 47 -7z m-760 -6 c7 -7 12
-20 12 -30 0 -15 -9 -18 -50 -18 -52 0 -60 -8 -34 -34 20 -21 43 -20 66 1 10
9 18 11 18 5 0 -14 -32 -32 -56 -32 -28 0 -54 31 -54 65 0 39 16 55 55 55 17
0 36 -5 43 -12z m260 -8 c4 -12 2 -13 -9 -2 -19 17 -66 15 -73 -4 -23 -60 27
-114 64 -69 7 8 17 15 23 15 5 0 2 -9 -8 -20 -10 -11 -29 -20 -42 -20 -27 0
-63 33 -63 58 0 10 7 28 16 40 12 18 24 22 52 20 21 -2 37 -9 40 -18z m770 8
c7 -7 12 -25 12 -42 0 -59 -59 -87 -100 -46 -24 24 -25 48 -4 78 17 25 71 31
92 10z m432 -7 c25 -48 -1 -101 -51 -101 -49 0 -78 70 -43 104 22 23 81 21 94
-3z m246 8 c4 -8 9 -7 15 2 5 9 9 -16 9 -63 0 -82 -12 -108 -51 -108 -26 0
-59 18 -59 31 0 6 10 3 22 -5 12 -9 28 -16 35 -16 18 0 43 29 43 51 0 16 -3
18 -19 9 -61 -32 -114 28 -81 91 12 21 74 27 86 8z m204 -38 c7 -23 16 -41 20
-41 4 0 15 21 25 46 9 25 19 43 22 40 3 -3 -1 -22 -10 -43 -37 -93 -58 -135
-63 -131 -2 3 1 17 7 31 10 22 8 35 -10 78 -22 55 -26 73 -13 65 5 -3 14 -23
22 -45z"/>
<path d="M2214 3457 c-12 -7 -36 -25 -54 -40 -27 -23 -31 -30 -19 -38 21 -13
66 -11 72 4 3 6 12 29 21 50 17 39 14 44 -20 24z"/>
<path d="M2782 3189 c3 -8 11 -37 18 -65 l13 -51 49 15 c26 9 48 19 48 22 0 7
-103 80 -124 89 -5 2 -7 -3 -4 -10z"/>
<path d="M3007 3139 c3 -35 9 -67 12 -72 4 -4 20 20 36 53 16 33 26 62 23 65
-3 3 -21 8 -41 12 l-35 5 5 -63z"/>
<path d="M2965 3144 l-19 -35 31 -30 30 -30 -5 58 c-2 32 -7 61 -11 65 -4 4
-15 -8 -26 -28z"/>
<path d="M3065 3113 c-16 -31 -31 -60 -33 -65 -2 -4 20 -8 48 -8 52 0 52 0 46
28 -14 57 -27 102 -29 102 -1 0 -15 -26 -32 -57z"/>
<path d="M3123 3128 c3 -9 9 -33 13 -52 5 -30 11 -36 31 -36 24 0 24 0 7 28
-24 41 -57 80 -51 60z"/>
<path d="M2873 3081 c-23 -9 -44 -19 -47 -22 -6 -5 32 -129 39 -129 5 0 57
161 54 165 -2 1 -23 -5 -46 -14z"/>
<path d="M2906 3012 c-14 -42 -26 -81 -26 -85 0 -22 111 7 199 51 l94 47 -63
3 c-34 2 -76 -2 -92 -7 -20 -7 -27 -7 -22 0 6 10 -42 69 -57 69 -4 0 -19 -35
-33 -78z"/>
<path d="M2765 3046 c-22 -6 -39 -15 -38 -20 1 -4 30 -28 64 -53 34 -25 60
-39 57 -32 -3 8 -13 38 -22 67 -10 28 -18 52 -19 51 -1 0 -20 -6 -42 -13z"/>
<path d="M3057 2776 c-9 -29 -17 -56 -17 -59 0 -7 91 30 103 42 5 5 -9 22 -31
39 l-39 31 -16 -53z"/>
<path d="M1828 2778 c-16 -5 -28 -14 -28 -19 0 -9 70 -119 75 -119 6 0 -8 135
-14 141 -3 4 -18 2 -33 -3z"/>
<path d="M2794 2720 c-14 -46 -18 -70 -10 -70 22 0 86 21 86 28 0 12 -45 112
-50 112 -3 0 -15 -32 -26 -70z"/>
<path d="M3180 2733 c1 -10 6 -45 13 -77 l13 -60 32 72 c18 40 32 74 32 77 0
3 -20 5 -45 5 -36 0 -45 -3 -45 -17z"/>
<path d="M2553 2662 c-18 -9 -33 -19 -33 -22 0 -4 20 -11 45 -17 49 -11 54 -5
32 33 -11 20 -14 21 -44 6z"/>
<path d="M2735 2624 c-5 -2 -29 -8 -53 -14 l-43 -11 22 -39 c13 -22 25 -40 28
-40 6 0 62 102 58 105 -1 1 -6 1 -12 -1z"/>
<path d="M2608 2483 c-21 -2 -38 -8 -38 -12 0 -9 141 -44 148 -37 3 3 -3 17
-12 31 -17 25 -20 26 -98 18z"/>
<path d="M3181 1724 c-47 -59 -11 -154 57 -154 37 0 78 31 86 66 9 34 -10 91
-34 104 -36 20 -87 12 -109 -16z"/>
<path d="M870 1661 l0 -101 25 0 c33 0 81 25 89 45 3 9 6 36 6 60 0 57 -23 85
-78 92 l-42 6 0 -102z"/>
<path d="M2097 1675 c-22 -65 -22 -65 19 -65 39 0 38 -5 9 80 l-12 34 -16 -49z"/>
<path d="M3520 1725 c0 -39 15 -51 54 -41 29 7 43 41 26 61 -7 8 -28 15 -46
15 -32 0 -34 -2 -34 -35z"/>
<path d="M4020 1660 l0 -100 36 0 c26 0 43 8 65 29 62 62 20 171 -65 171 l-36
0 0 -100z"/>
<path d="M1582 1308 c-21 -21 -13 -28 33 -28 25 0 45 4 45 8 0 15 -24 32 -45
32 -12 0 -26 -5 -33 -12z"/>
<path d="M2612 1308 c-17 -17 -15 -63 3 -78 23 -19 64 -4 71 27 4 14 2 33 -3
42 -13 20 -54 26 -71 9z"/>
<path d="M3029 1296 c-10 -20 -9 -30 5 -51 20 -30 46 -32 71 -5 28 31 10 74
-33 78 -26 3 -34 -1 -43 -22z"/>
<path d="M3289 1296 c-10 -20 -9 -30 5 -51 20 -30 46 -32 71 -5 28 31 10 74
-33 78 -26 3 -34 -1 -43 -22z"/>
</g>
</svg>
